<?xml version="1.0" standalone="no"?>
<!DOCTYPE svg PUBLIC "-//W3C//DTD SVG 20010904//EN"
 "http://www.w3.org/TR/2001/REC-SVG-20010904/DTD/svg10.dtd">
<svg version="1.0" xmlns="http://www.w3.org/2000/svg"
 width="775.000000pt" height="775.000000pt" viewBox="0 0 775.000000 775.000000"
 preserveAspectRatio="xMidYMid meet">
<metadata>
Created by potrace 1.14, written by Peter Selinger 2001-2017
</metadata>
<g transform="translate(0.000000,775.000000) scale(0.100000,-0.100000)"
fill="#000000" stroke="none">
<path d="M4326 4969 c-494 -52 -1130 -271 -1626 -561 l-126 -74 -69 12 c-274
46 -700 68 -1033 54 -690 -29 -1154 -160 -1253 -353 -11 -21 -18 -46 -15 -55
3 -12 -12 -30 -54 -61 -32 -24 -80 -65 -106 -92 l-47 -48 52 -103 c203 -398
499 -642 670 -554 43 23 46 35 27 110 -108 431 57 794 431 945 130 53 204 66
368 65 178 -1 261 -19 400 -88 185 -92 300 -230 354 -426 39 -140 23 -376 -39
-554 -11 -33 -20 -63 -20 -68 0 -4 713 -8 1585 -8 l1585 0 0 141 c0 367 100
648 302 846 81 81 137 120 234 165 123 58 191 73 334 73 102 0 139 -5 200 -24
369 -114 584 -449 607 -946 7 -155 18 -186 77 -215 51 -24 92 -25 171 -5 126
33 250 127 301 227 14 27 32 81 41 120 13 59 14 79 3 127 -19 84 -73 182 -139
253 l-59 63 134 160 c74 87 134 164 134 170 0 19 -42 53 -100 79 -119 54 -332
94 -860 161 -476 60 -551 78 -1006 245 -328 121 -618 191 -913 220 -119 12
-430 11 -545 -1z m551 -141 c-2 -7 -44 -115 -92 -240 -82 -213 -91 -230 -139
-279 -31 -32 -77 -65 -116 -83 l-65 -31 -773 -3 c-878 -3 -797 -13 -692 84
255 234 719 464 1066 529 138 26 233 32 533 34 223 1 282 -2 278 -11z m359
-28 c176 -36 252 -65 302 -112 57 -56 38 -122 -50 -180 -134 -88 -388 -234
-433 -250 -95 -33 -157 -20 -171 36 -16 65 120 448 181 510 21 21 52 20 171
-4z"/>
<path d="M1402 4119 c-246 -38 -461 -219 -543 -459 -16 -48 -23 -96 -27 -185
-5 -144 8 -209 69 -335 54 -110 177 -236 286 -293 197 -103 438 -103 636 0
108 56 231 182 285 293 56 113 72 183 72 305 0 120 -19 206 -65 300 -131 265
-424 418 -713 374z m244 -394 c184 -90 226 -352 79 -497 -65 -64 -116 -83
-225 -83 -79 0 -102 4 -137 23 -89 47 -153 140 -168 243 -9 59 16 157 53 212
86 127 257 171 398 102z"/>
<path d="M6145 4115 c-296 -54 -530 -318 -551 -621 -22 -306 157 -576 458
-690 68 -26 84 -28 218 -28 131 0 152 3 218 26 106 38 175 83 263 170 138 136
206 315 196 508 -10 181 -71 317 -201 445 -164 163 -379 231 -601 190z m251
-384 c62 -28 118 -81 152 -146 23 -43 27 -62 27 -140 0 -74 -4 -97 -23 -132
-35 -67 -79 -110 -144 -143 -52 -26 -72 -30 -138 -30 -66 0 -86 4 -138 31
-116 57 -178 165 -170 294 14 218 235 354 434 266z"/>
</g>
</svg>
