<svg xmlns="http://www.w3.org/2000/svg" version="1.1" xmlns:xlink="http://www.w3.org/1999/xlink" xmlns:svgjs="http://svgjs.com/svgjs" width="1000" height="1000"><rect width="1000" height="1000" rx="500" ry="500" fill="#555555"></rect><g transform="matrix(1.032258064516129,0,0,1.032258064516129,100,385.9351207979264)"><svg xmlns="http://www.w3.org/2000/svg" version="1.1" xmlns:xlink="http://www.w3.org/1999/xlink" xmlns:svgjs="http://svgjs.com/svgjs" width="775" height="221"><svg width="775" height="221" viewBox="0 0 775 221" fill="none" xmlns="http://www.w3.org/2000/svg">
<path fill-rule="evenodd" clip-rule="evenodd" d="M627.039 85.6115C664.439 85.6115 694.712 115.894 694.712 153.306C694.712 190.717 664.439 221 627.039 221C589.638 221 559.365 190.717 559.365 153.306C559.365 115.894 589.638 85.6115 627.039 85.6115ZM498.566 31.5444C494.845 39.5567 491.88 48.5153 489.61 58.231C484.438 74.4448 492.07 77.8516 509.729 71.2273C522.721 63.4673 535.714 55.6443 548.706 47.8844C555.328 43.2158 558.482 38.6104 557.41 34.068C555.265 25.1094 537.984 20.4408 523.794 17.6649C505.756 14.0688 507.017 13.3118 498.566 31.5444ZM150.484 121.824C167.828 121.824 181.956 135.893 181.956 153.306C181.956 170.655 167.891 184.787 150.484 184.787C133.14 184.787 119.012 170.718 119.012 153.306C119.012 135.893 133.077 121.824 150.484 121.824ZM627.039 121.824C644.383 121.824 658.51 135.893 658.51 153.306C658.51 170.655 644.446 184.787 627.039 184.787C609.694 184.787 595.567 170.718 595.567 153.306C595.567 135.893 609.631 121.824 627.039 121.824ZM291.003 78.861C308.474 60.1236 328.656 47.9475 351.992 36.213C403.078 10.4728 434.361 13.6272 488.601 13.6272L470.374 60.9438C462.742 71.038 454.102 78.167 440.983 78.861H291.003ZM150.484 85.6115C187.885 85.6115 218.158 115.894 218.158 153.306C218.158 190.717 187.885 221 150.484 221C113.084 221 82.8105 190.717 82.8105 153.306C82.8105 115.894 113.084 85.6115 150.484 85.6115ZM257.45 64.9815C279.651 51.165 303.807 38.7996 330.548 28.2638C411.971 -3.84839 474.221 -9.58947 559.617 16.2769C585.35 26.0557 611.082 35.8345 636.814 41.891C662.231 47.9475 772.288 53.7517 775 72.2367L747.817 104.727C757.719 113.307 765.792 123.843 768.756 140.309C767.936 150.467 765.161 158.984 760.368 165.797C752.232 177.469 728.392 189.519 715.525 182.642C711.426 180.434 709.092 176.018 709.155 168.51C709.534 17.728 527.578 34.8881 541.264 186.301H223.771C282.552 34.6358 31.7871 34.068 76.3143 181.065C60.673 197.973 23.7773 172.485 0 118.291C6.49618 111.856 13.623 105.737 21.5698 100.059C21.1914 99.7434 21.9482 101.258 20.6238 98.9863C19.2993 96.7151 23.8403 87.1887 33.1746 81.7C82.1167 52.9946 200.12 53.7517 257.45 64.9815Z" fill="white"></path>
</svg></svg></g></svg>